<mxfile host="app.diagrams.net" modified="2021-03-12T10:08:10.648Z" agent="5.0 (Macintosh; Intel Mac OS X 11_2_1) AppleWebKit/537.36 (KHTML, like Gecko) Chrome/89.0.4389.72 Safari/537.36" etag="K6pxAiH9HkLdTp28-q18" version="14.4.7" type="github">
  <diagram id="UxzMSkHPXDNqIrRCw2bD" name="Page-1">
    <mxGraphModel dx="1228" dy="1080" grid="1" gridSize="10" guides="1" tooltips="1" connect="1" arrows="1" fold="1" page="1" pageScale="1" pageWidth="850" pageHeight="1100" math="0" shadow="0">
      <root>
        <mxCell id="0" />
        <mxCell id="1" parent="0" />
        <mxCell id="Qbo1H9NYPrMNoQKlqwee-14" value="" style="edgeStyle=orthogonalEdgeStyle;rounded=0;orthogonalLoop=1;jettySize=auto;html=1;" edge="1" parent="1" source="Qbo1H9NYPrMNoQKlqwee-1" target="Qbo1H9NYPrMNoQKlqwee-13">
          <mxGeometry relative="1" as="geometry" />
        </mxCell>
        <mxCell id="Qbo1H9NYPrMNoQKlqwee-45" value="" style="edgeStyle=orthogonalEdgeStyle;rounded=0;orthogonalLoop=1;jettySize=auto;html=1;" edge="1" parent="1" source="Qbo1H9NYPrMNoQKlqwee-1" target="Qbo1H9NYPrMNoQKlqwee-43">
          <mxGeometry relative="1" as="geometry" />
        </mxCell>
        <mxCell id="Qbo1H9NYPrMNoQKlqwee-1" value="frontend app" style="whiteSpace=wrap;html=1;aspect=fixed;" vertex="1" parent="1">
          <mxGeometry x="95" y="130" width="80" height="80" as="geometry" />
        </mxCell>
        <mxCell id="Qbo1H9NYPrMNoQKlqwee-28" value="" style="edgeStyle=orthogonalEdgeStyle;rounded=0;orthogonalLoop=1;jettySize=auto;html=1;" edge="1" parent="1" source="Qbo1H9NYPrMNoQKlqwee-3" target="Qbo1H9NYPrMNoQKlqwee-27">
          <mxGeometry relative="1" as="geometry">
            <Array as="points">
              <mxPoint x="440" y="590" />
              <mxPoint x="440" y="590" />
            </Array>
          </mxGeometry>
        </mxCell>
        <mxCell id="Qbo1H9NYPrMNoQKlqwee-49" style="edgeStyle=orthogonalEdgeStyle;rounded=0;orthogonalLoop=1;jettySize=auto;html=1;entryX=0.5;entryY=1;entryDx=0;entryDy=0;" edge="1" parent="1" source="Qbo1H9NYPrMNoQKlqwee-3" target="Qbo1H9NYPrMNoQKlqwee-23">
          <mxGeometry relative="1" as="geometry" />
        </mxCell>
        <mxCell id="Qbo1H9NYPrMNoQKlqwee-3" value="&lt;span&gt;lucio of chain bot&lt;/span&gt;" style="rounded=0;whiteSpace=wrap;html=1;" vertex="1" parent="1">
          <mxGeometry x="300" y="580" width="90" height="90" as="geometry" />
        </mxCell>
        <mxCell id="Qbo1H9NYPrMNoQKlqwee-7" value="" style="rounded=0;whiteSpace=wrap;html=1;" vertex="1" parent="1">
          <mxGeometry x="640" y="80" width="130" height="150" as="geometry" />
        </mxCell>
        <mxCell id="Qbo1H9NYPrMNoQKlqwee-8" value="legacy" style="text;html=1;strokeColor=none;fillColor=none;align=center;verticalAlign=middle;whiteSpace=wrap;rounded=0;" vertex="1" parent="1">
          <mxGeometry x="685" y="40" width="40" height="20" as="geometry" />
        </mxCell>
        <mxCell id="Qbo1H9NYPrMNoQKlqwee-9" value="" style="rhombus;whiteSpace=wrap;html=1;" vertex="1" parent="1">
          <mxGeometry x="660" y="145" width="30" height="30" as="geometry" />
        </mxCell>
        <mxCell id="Qbo1H9NYPrMNoQKlqwee-10" value="" style="whiteSpace=wrap;html=1;aspect=fixed;" vertex="1" parent="1">
          <mxGeometry x="665" y="100" width="20" height="20" as="geometry" />
        </mxCell>
        <mxCell id="Qbo1H9NYPrMNoQKlqwee-11" value="entity" style="text;html=1;strokeColor=none;fillColor=none;align=center;verticalAlign=middle;whiteSpace=wrap;rounded=0;" vertex="1" parent="1">
          <mxGeometry x="710" y="100" width="40" height="20" as="geometry" />
        </mxCell>
        <mxCell id="Qbo1H9NYPrMNoQKlqwee-12" value="action" style="text;html=1;strokeColor=none;fillColor=none;align=center;verticalAlign=middle;whiteSpace=wrap;rounded=0;" vertex="1" parent="1">
          <mxGeometry x="710" y="145" width="40" height="20" as="geometry" />
        </mxCell>
        <mxCell id="Qbo1H9NYPrMNoQKlqwee-16" value="" style="edgeStyle=orthogonalEdgeStyle;rounded=0;orthogonalLoop=1;jettySize=auto;html=1;" edge="1" parent="1" source="Qbo1H9NYPrMNoQKlqwee-13" target="Qbo1H9NYPrMNoQKlqwee-15">
          <mxGeometry relative="1" as="geometry">
            <Array as="points">
              <mxPoint x="400" y="50" />
            </Array>
          </mxGeometry>
        </mxCell>
        <mxCell id="Qbo1H9NYPrMNoQKlqwee-13" value="connect wallet" style="rhombus;whiteSpace=wrap;html=1;" vertex="1" parent="1">
          <mxGeometry x="260" y="10" width="80" height="80" as="geometry" />
        </mxCell>
        <mxCell id="Qbo1H9NYPrMNoQKlqwee-42" style="edgeStyle=orthogonalEdgeStyle;rounded=0;orthogonalLoop=1;jettySize=auto;html=1;exitX=0;exitY=0.5;exitDx=0;exitDy=0;entryX=1;entryY=0.75;entryDx=0;entryDy=0;" edge="1" parent="1" source="Qbo1H9NYPrMNoQKlqwee-15" target="Qbo1H9NYPrMNoQKlqwee-1">
          <mxGeometry relative="1" as="geometry" />
        </mxCell>
        <mxCell id="Qbo1H9NYPrMNoQKlqwee-15" value="wallet adapter" style="shape=parallelogram;perimeter=parallelogramPerimeter;whiteSpace=wrap;html=1;fixedSize=1;" vertex="1" parent="1">
          <mxGeometry x="340" y="150" width="120" height="60" as="geometry" />
        </mxCell>
        <mxCell id="Qbo1H9NYPrMNoQKlqwee-17" value="" style="shape=parallelogram;perimeter=parallelogramPerimeter;whiteSpace=wrap;html=1;fixedSize=1;" vertex="1" parent="1">
          <mxGeometry x="647.5" y="190" width="52.5" height="20" as="geometry" />
        </mxCell>
        <mxCell id="Qbo1H9NYPrMNoQKlqwee-18" value="service" style="text;html=1;strokeColor=none;fillColor=none;align=center;verticalAlign=middle;whiteSpace=wrap;rounded=0;" vertex="1" parent="1">
          <mxGeometry x="710" y="190" width="40" height="20" as="geometry" />
        </mxCell>
        <mxCell id="Qbo1H9NYPrMNoQKlqwee-20" value="wallet data" style="text;html=1;strokeColor=none;fillColor=none;align=center;verticalAlign=middle;whiteSpace=wrap;rounded=0;" vertex="1" parent="1">
          <mxGeometry x="230" y="190" width="90" height="20" as="geometry" />
        </mxCell>
        <mxCell id="Qbo1H9NYPrMNoQKlqwee-48" style="edgeStyle=orthogonalEdgeStyle;rounded=0;orthogonalLoop=1;jettySize=auto;html=1;" edge="1" parent="1" source="Qbo1H9NYPrMNoQKlqwee-23" target="Qbo1H9NYPrMNoQKlqwee-3">
          <mxGeometry relative="1" as="geometry" />
        </mxCell>
        <mxCell id="Qbo1H9NYPrMNoQKlqwee-23" value="send sol to solana program" style="rhombus;whiteSpace=wrap;html=1;" vertex="1" parent="1">
          <mxGeometry x="95" y="480" width="80" height="80" as="geometry" />
        </mxCell>
        <mxCell id="Qbo1H9NYPrMNoQKlqwee-32" value="" style="edgeStyle=orthogonalEdgeStyle;rounded=0;orthogonalLoop=1;jettySize=auto;html=1;" edge="1" parent="1" source="Qbo1H9NYPrMNoQKlqwee-27" target="Qbo1H9NYPrMNoQKlqwee-31">
          <mxGeometry relative="1" as="geometry">
            <Array as="points">
              <mxPoint x="590" y="600" />
              <mxPoint x="590" y="600" />
            </Array>
          </mxGeometry>
        </mxCell>
        <mxCell id="Qbo1H9NYPrMNoQKlqwee-34" value="" style="edgeStyle=orthogonalEdgeStyle;rounded=0;orthogonalLoop=1;jettySize=auto;html=1;" edge="1" parent="1" source="Qbo1H9NYPrMNoQKlqwee-27" target="Qbo1H9NYPrMNoQKlqwee-3">
          <mxGeometry relative="1" as="geometry">
            <Array as="points">
              <mxPoint x="410" y="650" />
              <mxPoint x="410" y="650" />
            </Array>
          </mxGeometry>
        </mxCell>
        <mxCell id="Qbo1H9NYPrMNoQKlqwee-27" value="create stake account" style="rhombus;whiteSpace=wrap;html=1;rounded=0;" vertex="1" parent="1">
          <mxGeometry x="475" y="585" width="80" height="80" as="geometry" />
        </mxCell>
        <mxCell id="Qbo1H9NYPrMNoQKlqwee-33" value="" style="edgeStyle=orthogonalEdgeStyle;rounded=0;orthogonalLoop=1;jettySize=auto;html=1;" edge="1" parent="1" source="Qbo1H9NYPrMNoQKlqwee-31" target="Qbo1H9NYPrMNoQKlqwee-27">
          <mxGeometry relative="1" as="geometry">
            <Array as="points">
              <mxPoint x="620" y="620" />
              <mxPoint x="620" y="650" />
            </Array>
          </mxGeometry>
        </mxCell>
        <mxCell id="Qbo1H9NYPrMNoQKlqwee-31" value="solana blockchain&lt;br&gt;api" style="whiteSpace=wrap;html=1;rounded=0;" vertex="1" parent="1">
          <mxGeometry x="660" y="580" width="80" height="80" as="geometry" />
        </mxCell>
        <mxCell id="Qbo1H9NYPrMNoQKlqwee-41" value="send tx" style="text;html=1;align=center;verticalAlign=middle;resizable=0;points=[];autosize=1;" vertex="1" parent="1">
          <mxGeometry x="80" y="290" width="50" height="20" as="geometry" />
        </mxCell>
        <mxCell id="Qbo1H9NYPrMNoQKlqwee-46" value="" style="edgeStyle=orthogonalEdgeStyle;rounded=0;orthogonalLoop=1;jettySize=auto;html=1;" edge="1" parent="1" source="Qbo1H9NYPrMNoQKlqwee-43" target="Qbo1H9NYPrMNoQKlqwee-23">
          <mxGeometry relative="1" as="geometry" />
        </mxCell>
        <mxCell id="Qbo1H9NYPrMNoQKlqwee-43" value="wallet adapter" style="shape=parallelogram;perimeter=parallelogramPerimeter;whiteSpace=wrap;html=1;fixedSize=1;" vertex="1" parent="1">
          <mxGeometry x="75" y="330" width="120" height="60" as="geometry" />
        </mxCell>
        <mxCell id="Qbo1H9NYPrMNoQKlqwee-47" value="approve tx" style="text;html=1;align=center;verticalAlign=middle;resizable=0;points=[];autosize=1;" vertex="1" parent="1">
          <mxGeometry x="60" y="430" width="70" height="20" as="geometry" />
        </mxCell>
      </root>
    </mxGraphModel>
  </diagram>
</mxfile>
